<svg width="1170" height="440" viewBox="0 0 1170 440" fill="none" xmlns="http://www.w3.org/2000/svg">
<g opacity="0.06">
<path d="M0 0L1170 440" stroke="#3C64B1"/>
<path d="M45.7031 -17.1875L1215.7 422.812" stroke="#3C64B1"/>
<path d="M91.4062 -34.375L1261.41 405.625" stroke="#3C64B1"/>
<path d="M137.109 -51.5625L1307.11 388.438" stroke="#3C64B1"/>
<path d="M182.812 -68.75L1352.81 371.25" stroke="#3C64B1"/>
<path d="M228.516 -85.9375L1398.52 354.062" stroke="#3C64B1"/>
<path d="M274.219 -103.125L1444.22 336.875" stroke="#3C64B1"/>
<path d="M319.922 -120.312L1489.92 319.688" stroke="#3C64B1"/>
<path d="M365.625 -137.5L1535.62 302.5" stroke="#3C64B1"/>
<path d="M411.328 -154.688L1581.33 285.312" stroke="#3C64B1"/>
<path d="M457.031 -171.875L1627.03 268.125" stroke="#3C64B1"/>
<path d="M502.734 -189.062L1672.73 250.938" stroke="#3C64B1"/>
<path d="M548.438 -206.25L1718.44 233.75" stroke="#3C64B1"/>
<path d="M-45.7031 17.1875L1124.3 457.188" stroke="#3C64B1"/>
<path d="M-91.4062 34.375L1078.59 474.375" stroke="#3C64B1"/>
<path d="M-137.109 51.5625L1032.89 491.562" stroke="#3C64B1"/>
<path d="M-182.812 68.75L987.188 508.75" stroke="#3C64B1"/>
<path d="M-228.516 85.9375L941.484 525.938" stroke="#3C64B1"/>
<path d="M-274.219 103.125L895.781 543.125" stroke="#3C64B1"/>
<path d="M-319.922 120.312L850.078 560.312" stroke="#3C64B1"/>
<path d="M-365.625 137.5L804.375 577.5" stroke="#3C64B1"/>
<path d="M-411.328 154.688L758.672 594.688" stroke="#3C64B1"/>
<path d="M-457.031 171.875L712.969 611.875" stroke="#3C64B1"/>
<path d="M-502.734 189.062L667.266 629.062" stroke="#3C64B1"/>
<path d="M-548.438 206.25L621.562 646.25" stroke="#3C64B1"/>
<path d="M-594.141 223.438L575.859 663.438" stroke="#3C64B1"/>
</g>
</svg>
