<svg width="173" height="173" viewBox="0 0 173 173" fill="none" xmlns="http://www.w3.org/2000/svg">
<g clip-path="url(#clip0)">
<path fill-rule="evenodd" clip-rule="evenodd" d="M86.8648 116.579C76.008 116.579 64.9781 110.108 58.5409 101.542C27.6572 101.542 26.7236 145.844 26.7236 145.844H146.998C146.998 145.844 149.423 101.346 114.692 101.346C108.262 110.017 97.7215 116.579 86.8648 116.579Z" fill="#1BA0E2"/>
<path fill-rule="evenodd" clip-rule="evenodd" d="M112.733 63.4756C112.733 76.2217 101.146 100.595 86.8408 100.595C72.5584 100.595 60.9639 76.2141 60.9639 63.4756C60.9639 50.737 72.5509 40.395 86.8408 40.395C101.146 40.4026 112.733 50.7446 112.733 63.4756Z" fill="#1BA0E2"/>
<path fill-rule="evenodd" clip-rule="evenodd" d="M124.284 52.4723C124.284 50.0833 120.971 48.1555 116.861 48.1404V43.2189C116.861 42.4856 117.139 25.3169 86.933 25.3169C56.742 25.3169 57.0206 42.4856 57.0206 43.2189V48.3143C56.9453 48.3143 56.8851 48.2916 56.8173 48.2916C52.7291 48.2916 49.439 50.1892 49.439 52.5403V73.3604C49.439 75.6965 52.7366 77.6016 56.8173 77.6016C60.898 77.6016 64.2107 75.6965 64.2107 73.3604V52.5403C64.2107 52.2152 64.0074 51.9204 63.887 51.618V45.9405C63.887 45.4188 61.7186 32.4611 86.933 32.4611C112.155 32.4611 109.535 45.4188 109.535 45.9405V51.9204C109.49 52.1094 109.347 52.2757 109.347 52.4723V73.7687C109.347 76.1652 112.682 78.1081 116.815 78.1081C116.906 78.1081 116.973 78.0779 117.064 78.0779V85.857H109.655V93.1902H124.359L124.284 52.4723Z" fill="#1BA0E2"/>
</g>
<defs>
<clipPath id="clip0">
<rect width="127.992" height="120.959" fill="white" transform="translate(22.5039 25.3169)"/>
</clipPath>
</defs>
</svg>
