<svg width="20" height="22" viewBox="0 0 20 22" fill="none" xmlns="http://www.w3.org/2000/svg">
<path d="M13.75 10.25C15.2087 10.25 16.6076 10.8295 17.6391 11.8609C18.6705 12.8924 19.25 14.2913 19.25 15.75C19.25 17.2087 18.6705 18.6076 17.6391 19.6391C16.6076 20.6705 15.2087 21.25 13.75 21.25C12.2913 21.25 10.8924 20.6705 9.86091 19.6391C8.82946 18.6076 8.25 17.2087 8.25 15.75C8.25 14.2913 8.82946 12.8924 9.86091 11.8609C10.8924 10.8295 12.2913 10.25 13.75 10.25V10.25ZM9.25 6.97518e-09C10.0801 -5.43467e-05 10.8788 0.317554 11.4822 0.887672C12.0856 1.45779 12.448 2.23719 12.495 3.066L12.5 3.25H17.75C17.94 3.25006 18.1229 3.32224 18.2618 3.45197C18.4006 3.5817 18.4851 3.7593 18.498 3.94888C18.511 4.13846 18.4515 4.32589 18.3316 4.4733C18.2117 4.62071 18.0402 4.7171 17.852 4.743L17.75 4.75H16.954L16.454 9.837C15.994 9.627 15.504 9.467 14.994 9.369L15.447 4.75H3.052L4.319 17.622C4.34706 17.9092 4.47362 18.1779 4.67722 18.3824C4.88082 18.5869 5.14892 18.7147 5.436 18.744L5.563 18.75H7.983C8.269 19.301 8.633 19.806 9.059 20.25H5.563C4.91046 20.25 4.27919 20.0179 3.78201 19.5953C3.28482 19.1727 2.95412 18.587 2.849 17.943L2.826 17.769L1.545 4.75H0.75C0.568762 4.74999 0.393658 4.68436 0.257069 4.56523C0.120481 4.44611 0.0316483 4.28155 0.00699997 4.102L0 4C7.6429e-06 3.81876 0.0656426 3.64366 0.184767 3.50707C0.303891 3.37048 0.468446 3.28165 0.648 3.257L0.75 3.25H6C6 2.38805 6.34241 1.5614 6.9519 0.951903C7.5614 0.34241 8.38805 6.97518e-09 9.25 6.97518e-09V6.97518e-09ZM10.966 12.839L10.896 12.896L10.839 12.966C10.7814 13.0495 10.7505 13.1485 10.7505 13.25C10.7505 13.3515 10.7814 13.4505 10.839 13.534L10.896 13.604L13.043 15.75L10.896 17.896L10.839 17.966C10.7814 18.0495 10.7505 18.1485 10.7505 18.25C10.7505 18.3515 10.7814 18.4505 10.839 18.534L10.896 18.604L10.966 18.661C11.0495 18.7186 11.1485 18.7495 11.25 18.7495C11.3515 18.7495 11.4505 18.7186 11.534 18.661L11.604 18.604L13.75 16.457L15.896 18.604L15.966 18.661C16.0495 18.7186 16.1485 18.7495 16.25 18.7495C16.3515 18.7495 16.4505 18.7186 16.534 18.661L16.604 18.604L16.661 18.534C16.7186 18.4505 16.7495 18.3515 16.7495 18.25C16.7495 18.1485 16.7186 18.0495 16.661 17.966L16.604 17.896L14.457 15.75L16.604 13.604L16.661 13.534C16.7186 13.4505 16.7495 13.3515 16.7495 13.25C16.7495 13.1485 16.7186 13.0495 16.661 12.966L16.604 12.896L16.534 12.839C16.4505 12.7814 16.3515 12.7505 16.25 12.7505C16.1485 12.7505 16.0495 12.7814 15.966 12.839L15.896 12.896L13.75 15.043L11.604 12.896L11.534 12.839C11.4628 12.7897 11.3801 12.7597 11.2938 12.752C11.2076 12.7443 11.1208 12.7591 11.042 12.795L10.966 12.839V12.839ZM9.25 1.5C8.81081 1.50002 8.38768 1.66517 8.06461 1.96268C7.74154 2.26019 7.54214 2.6683 7.506 3.106L7.5 3.25H11C11 2.78587 10.8156 2.34075 10.4874 2.01256C10.1592 1.68437 9.71413 1.5 9.25 1.5Z" fill="#E72E2E"/>
</svg>
