<svg width="173" height="173" viewBox="0 0 173 173" fill="none" xmlns="http://www.w3.org/2000/svg">
<path d="M141.716 117.96L115.34 91.5849C110.136 86.3819 102.365 85.3683 96.1035 88.4541L72.0921 64.4437V50.4564L43.2604 28.8335L28.8445 43.2488L50.4683 72.0793H64.4562L88.4676 96.0897C85.4043 102.351 86.3953 110.122 91.5986 115.325L117.975 141.7C121.264 144.989 126.58 144.989 129.846 141.7L141.716 129.83C144.982 126.542 144.982 121.226 141.716 117.96ZM103.559 79.5121C109.934 79.5121 115.925 81.9898 120.43 86.4945L124.8 90.8642C128.359 89.31 131.738 87.1477 134.666 84.2196C143.023 75.8633 145.861 64.1058 143.203 53.4295C142.707 51.4024 140.162 50.7041 138.675 52.1907L121.917 68.9485L106.623 66.4033L104.077 51.1096L120.836 34.3518C122.322 32.8653 121.602 30.3201 119.552 29.802C108.875 27.1667 97.1171 30.0047 88.783 38.3386C82.3634 44.7579 79.3451 53.2268 79.5028 61.6733L97.9956 80.1653C99.8201 79.7374 101.712 79.5121 103.559 79.5121ZM80.156 97.9817L67.3844 85.2107L33.0566 119.56C27.4255 125.19 27.4255 134.313 33.0566 139.944C38.6878 145.575 47.8104 145.575 53.4416 139.944L81.2822 112.104C79.5703 107.622 79.0523 102.734 80.156 97.9817ZM43.2604 135.146C40.2871 135.146 37.8544 132.713 37.8544 129.74C37.8544 126.745 40.2646 124.335 43.2604 124.335C46.2562 124.335 48.6663 126.745 48.6663 129.74C48.6663 132.713 46.2562 135.146 43.2604 135.146Z" fill="#1BA0E2"/>
</svg>
