<svg width="25" height="25" viewBox="0 0 25 25" fill="none" xmlns="http://www.w3.org/2000/svg">
<path d="M21.7688 6.45086L20.5934 12.9151C20.4965 13.4498 20.2148 13.9335 19.7975 14.2817C19.3803 14.6299 18.854 14.8205 18.3106 14.8203H7.09864L7.52052 17.1406H17.9141C18.4069 17.1404 18.8871 17.297 19.285 17.5878C19.6829 17.8787 19.9779 18.2886 20.1274 18.7583C20.2768 19.2279 20.2729 19.733 20.1161 20.2003C19.9594 20.6675 19.658 21.0728 19.2556 21.3574C18.8532 21.642 18.3707 21.7911 17.8779 21.7832C17.3851 21.7753 16.9076 21.6107 16.5145 21.3133C16.1215 21.0159 15.8333 20.6012 15.6917 20.1291C15.55 19.657 15.5623 19.1521 15.7268 18.6875H10.0467C10.1829 19.0715 10.2157 19.4847 10.1416 19.8854C10.0676 20.2861 9.88927 20.6603 9.62471 20.9702C9.36015 21.2801 9.01864 21.515 8.63453 21.651C8.25041 21.7871 7.83724 21.8196 7.43657 21.7453C7.0359 21.671 6.66186 21.4925 6.35206 21.2278C6.04227 20.963 5.80765 20.6214 5.6718 20.2372C5.53596 19.853 5.50367 19.4398 5.5782 19.0392C5.65272 18.6386 5.83143 18.2646 6.09634 17.955L3.41702 3.21875H1.67188C1.46675 3.21875 1.27002 3.13726 1.12497 2.99222C0.979924 2.84717 0.898438 2.65044 0.898438 2.44531C0.898437 2.24018 0.979924 2.04346 1.12497 1.89841C1.27002 1.75336 1.46675 1.67188 1.67188 1.67188H3.41702C3.77933 1.67171 4.13019 1.7988 4.40836 2.03095C4.68652 2.2631 4.87432 2.58557 4.93897 2.94207L5.41113 5.53906H21.0078C21.1211 5.53907 21.233 5.56397 21.3356 5.61198C21.4382 5.66 21.529 5.72997 21.6016 5.81695C21.6742 5.90392 21.7268 6.00578 21.7557 6.11532C21.7846 6.22486 21.789 6.3394 21.7688 6.45086Z" fill="white"/>
</svg>
