<svg width="31" height="31" viewBox="0 0 31 31" fill="none" xmlns="http://www.w3.org/2000/svg">
<g clip-path="url(#clip0)">
<path d="M25.558 24.2296L19.1528 17.8243C20.199 16.4932 20.8238 14.8158 20.8238 12.9952C20.8238 8.6784 17.3119 5.1665 12.9951 5.1665C8.6784 5.1665 5.1665 8.6784 5.1665 12.9951C5.1665 17.3118 8.6784 20.8237 12.9951 20.8237C14.8157 20.8237 16.4931 20.199 17.8243 19.1528L24.2296 25.558C24.413 25.7415 24.6534 25.8332 24.8938 25.8332C25.1342 25.8332 25.3746 25.7415 25.558 25.558C25.9249 25.1912 25.9249 24.5964 25.558 24.2296ZM7.04529 12.9951C7.04529 9.71436 9.71437 7.04529 12.9951 7.04529C16.2759 7.04529 18.945 9.71436 18.945 12.9951C18.945 16.2758 16.2759 18.9449 12.9951 18.9449C9.71437 18.9449 7.04529 16.2758 7.04529 12.9951Z" fill="#1BA0E2"/>
</g>
<defs>
<clipPath id="clip0">
<rect width="20.6667" height="20.6667" fill="white" transform="translate(5.1665 5.1665)"/>
</clipPath>
</defs>
</svg>
