<svg width="33" height="33" viewBox="0 0 33 33" fill="none" xmlns="http://www.w3.org/2000/svg">
<path d="M16.5 20.3672C19.1104 20.3672 21.2266 18.251 21.2266 15.6406C21.2266 13.0302 19.1104 10.9141 16.5 10.9141C13.8896 10.9141 11.7734 13.0302 11.7734 15.6406C11.7734 18.251 13.8896 20.3672 16.5 20.3672Z" fill="white"/>
<path d="M16.5 5.32812C14.2904 5.32813 12.1304 5.98334 10.2932 7.21093C8.45604 8.43851 7.02411 10.1833 6.17854 12.2247C5.33297 14.2661 5.11173 16.5124 5.54279 18.6795C5.97386 20.8467 7.03788 22.8373 8.6003 24.3997C10.1627 25.9621 12.1533 27.0261 14.3205 27.4572C16.4876 27.8883 18.7339 27.667 20.7753 26.8215C22.8167 25.9759 24.5615 24.544 25.7891 22.7068C27.0167 20.8696 27.6719 18.7096 27.6719 16.5C27.6685 13.5381 26.4904 10.6984 24.396 8.60399C22.3016 6.50959 19.4619 5.33148 16.5 5.32812ZM23.5639 22.7745C22.874 21.775 21.9794 20.9338 20.9394 20.3066C19.7436 21.4486 18.1536 22.0859 16.5 22.0859C14.8464 22.0859 13.2564 21.4486 12.0606 20.3066C11.0206 20.9338 10.126 21.7751 9.43612 22.7745C8.22495 21.4126 7.4333 19.7296 7.15651 17.9282C6.87971 16.1268 7.12957 14.2837 7.876 12.621C8.62242 10.9583 9.83359 9.54682 11.3637 8.55653C12.8937 7.56624 14.6774 7.03938 16.5 7.03938C18.3226 7.03938 20.1063 7.56624 21.6363 8.55653C23.1664 9.54682 24.3776 10.9583 25.124 12.621C25.8704 14.2837 26.1203 16.1268 25.8435 17.9282C25.5667 19.7296 24.775 21.4126 23.5639 22.7745Z" fill="white"/>
</svg>
