<svg width="18" height="18" viewBox="0 0 18 18" fill="none" xmlns="http://www.w3.org/2000/svg">
<path d="M15.7409 4.60063L14.8861 9.30188C14.8156 9.69077 14.6107 10.0425 14.3073 10.2958C14.0039 10.549 13.6211 10.6877 13.2259 10.6875H5.07174L5.37856 12.375H12.9375C13.2959 12.3748 13.6452 12.4887 13.9345 12.7003C14.2239 12.9118 14.4385 13.2099 14.5472 13.5515C14.6558 13.893 14.653 14.2603 14.539 14.6002C14.425 14.94 14.2058 15.2348 13.9132 15.4418C13.6205 15.6487 13.2696 15.7572 12.9112 15.7514C12.5528 15.7457 12.2055 15.626 11.9196 15.4097C11.6338 15.1934 11.4242 14.8918 11.3212 14.5484C11.2182 14.2051 11.2272 13.8379 11.3468 13.5H7.21575C7.31487 13.7793 7.33869 14.0798 7.28482 14.3712C7.23095 14.6626 7.10129 14.9347 6.90888 15.1601C6.71648 15.3856 6.4681 15.5563 6.18875 15.6553C5.90939 15.7542 5.6089 15.7779 5.31751 15.7239C5.02611 15.6698 4.75408 15.54 4.52877 15.3475C4.30347 15.1549 4.13284 14.9065 4.03404 14.6271C3.93524 14.3477 3.91176 14.0472 3.96596 13.7558C4.02016 13.4644 4.15013 13.1925 4.34279 12.9673L2.3942 2.25H1.125C0.975816 2.25 0.832742 2.19074 0.727252 2.08525C0.621763 1.97976 0.5625 1.83668 0.5625 1.6875C0.5625 1.53832 0.621763 1.39524 0.727252 1.28975C0.832742 1.18426 0.975816 1.125 1.125 1.125H2.3942C2.6577 1.12488 2.91287 1.21731 3.11517 1.38615C3.31747 1.55499 3.45405 1.78951 3.50107 2.04878L3.84446 3.9375H15.1875C15.2699 3.93751 15.3513 3.95561 15.4259 3.99053C15.5005 4.02546 15.5666 4.07634 15.6193 4.1396C15.6721 4.20285 15.7104 4.27693 15.7314 4.35659C15.7524 4.43626 15.7557 4.51957 15.7409 4.60063Z" fill="white"/>
</svg>
